<?xml version="1.0" encoding="iso-8859-1"?>
<!-- Generator: Adobe Illustrator 19.0.0, SVG Export Plug-In . SVG Version: 6.00 Build 0)  -->
<svg version="1.1" id="Layer_1" xmlns="http://www.w3.org/2000/svg" xmlns:xlink="http://www.w3.org/1999/xlink" x="0px" y="0px"
	 viewBox="0 0 511.999 511.999" style="enable-background:new 0 0 511.999 511.999;" xml:space="preserve">
<g>
	<g>
		<path d="M506.114,249.115l-96.93-45.736c-1.857-0.876-3.991-0.966-5.912-0.246c-1.924,0.719-3.475,2.183-4.302,4.063
			l-13.233,30.052h-23.152c-0.141-2.822-0.309-5.641-0.514-8.439c-1.371-18.803-4.181-37.177-8.306-54.836
			c-0.036-0.193-0.081-0.381-0.131-0.568c-9.506-40.376-25.941-76.973-48.086-106.255C272.801,23.848,230.176,0,185.526,0
			c-9.116,0-18.278,1.005-27.234,2.983c-0.031,0.006-0.062,0.013-0.093,0.019c-0.022,0.005-0.045,0.009-0.068,0.014
			c-0.103,0.022-0.202,0.055-0.302,0.081c-0.188,0.05-0.371,0.106-0.553,0.169c-0.138,0.048-0.277,0.095-0.412,0.15
			c-0.095,0.04-0.187,0.086-0.281,0.13c-0.119,0.055-0.239,0.11-0.354,0.171c-0.088,0.047-0.174,0.098-0.259,0.148
			c-0.117,0.067-0.231,0.136-0.344,0.209c-0.08,0.053-0.158,0.108-0.237,0.163c-0.113,0.079-0.222,0.161-0.33,0.247
			c-0.073,0.058-0.144,0.116-0.215,0.177c-0.108,0.092-0.211,0.188-0.314,0.285c-0.064,0.062-0.129,0.122-0.192,0.186
			c-0.104,0.106-0.201,0.216-0.298,0.328c-0.054,0.062-0.111,0.122-0.162,0.187c-0.116,0.142-0.224,0.29-0.33,0.442
			c-0.05,0.071-0.098,0.143-0.146,0.217c-0.098,0.151-0.193,0.303-0.28,0.462c-0.049,0.087-0.09,0.179-0.136,0.268
			c-0.058,0.115-0.116,0.23-0.167,0.348c-0.044,0.098-0.082,0.199-0.121,0.299c-0.046,0.116-0.089,0.232-0.129,0.351
			c-0.034,0.102-0.066,0.205-0.095,0.309c-0.037,0.126-0.068,0.253-0.097,0.381c-0.023,0.099-0.047,0.199-0.066,0.3
			c-0.027,0.147-0.049,0.295-0.068,0.446c-0.011,0.085-0.025,0.169-0.034,0.256c-0.022,0.239-0.037,0.479-0.037,0.723v226.802
			h-46.433l-14.763-20.32c-1.432-1.971-3.722-3.138-6.158-3.138H9.134c-2.771,0-5.323,1.505-6.663,3.932
			c-1.339,2.426-1.255,5.387,0.22,7.733l19.211,30.544L2.69,286.544c-1.476,2.347-1.559,5.307-0.22,7.733
			c1.34,2.427,3.892,3.932,6.663,3.932h75.684c2.436,0,4.726-1.166,6.158-3.138l14.763-20.32h46.433v226.802
			c0,0.244,0.014,0.484,0.036,0.723c0.008,0.086,0.022,0.171,0.034,0.256c0.019,0.149,0.04,0.298,0.068,0.445
			c0.019,0.102,0.043,0.201,0.066,0.3c0.029,0.128,0.062,0.255,0.097,0.381c0.029,0.104,0.062,0.207,0.095,0.309
			c0.04,0.119,0.083,0.235,0.129,0.351c0.04,0.1,0.078,0.201,0.121,0.298c0.052,0.119,0.11,0.233,0.169,0.349
			c0.045,0.089,0.087,0.181,0.136,0.268c0.087,0.158,0.183,0.311,0.28,0.462c0.048,0.073,0.095,0.145,0.146,0.217
			c0.106,0.15,0.214,0.298,0.33,0.442c0.052,0.064,0.109,0.124,0.162,0.187c0.097,0.112,0.195,0.222,0.298,0.328
			c0.062,0.064,0.127,0.125,0.192,0.186c0.102,0.097,0.206,0.193,0.314,0.285c0.071,0.061,0.142,0.119,0.215,0.177
			c0.108,0.085,0.217,0.167,0.33,0.247c0.078,0.056,0.156,0.111,0.237,0.163c0.113,0.073,0.227,0.142,0.344,0.209
			c0.086,0.05,0.171,0.102,0.259,0.148c0.117,0.062,0.236,0.117,0.356,0.172c0.092,0.043,0.183,0.089,0.278,0.129
			c0.137,0.057,0.279,0.105,0.42,0.153c0.179,0.063,0.361,0.117,0.546,0.166c0.1,0.026,0.2,0.059,0.302,0.081
			c0.022,0.005,0.045,0.009,0.068,0.014c0.031,0.006,0.062,0.013,0.093,0.019c8.956,1.977,18.117,2.983,27.234,2.983
			c78.988,0,146.019-73.803,169.021-177.16c0.8-1.205,1.268-2.648,1.268-4.203c0-0.416-0.043-0.822-0.107-1.22
			c3.595-17.483,5.932-35.776,6.874-54.667h23.153l13.232,30.052c0.827,1.88,2.379,3.344,4.302,4.063
			c0.861,0.322,1.763,0.482,2.664,0.482c1.112,0,2.222-0.244,3.248-0.728l96.93-45.737c2.664-1.258,4.364-3.939,4.364-6.884
			S508.778,250.373,506.114,249.115z M80.939,282.984H22.914l14.423-22.933c1.558-2.476,1.558-5.629,0-8.105l-14.423-22.932h58.026
			l5.982,8.233h-8.729c-10.339,0-18.751,8.412-18.751,18.751c0,10.34,8.412,18.752,18.751,18.752h8.729L80.939,282.984z
			 M152.172,259.526H78.193v0.001c-1.912,0-3.527-1.616-3.527-3.528c0-1.912,1.615-3.527,3.527-3.527h73.979V259.526z
			 M346.886,229.918c0.178,2.431,0.328,4.881,0.456,7.332h-36.246v-0.001c-0.183-3.652-0.412-7.299-0.699-10.906
			c-1.185-14.874-3.262-29.367-6.146-43.37h35.937C343.453,198.15,345.714,213.862,346.886,229.918z M293.405,76.333
			c19.209,25.401,33.877,56.741,43.121,91.415h-35.779C282.879,97.554,244.259,41.58,195.439,15.674
			C231.62,18.966,266.088,40.212,293.405,76.333z M167.395,20.355c56.126,17.462,101.436,77.786,119.939,156.498
			c0.014,0.07,0.034,0.139,0.049,0.208c3.781,16.132,6.444,33.028,7.835,50.492c0.256,3.207,0.459,6.449,0.628,9.697H167.395V20.355
			z M167.395,491.641v-216.89h128.453C290.283,381.256,237.585,469.815,167.395,491.641z M296.942,430.847
			c-27.905,39.134-63.652,62.084-101.55,65.486c27.167-14.404,51.735-38.33,71.209-69.822
			c15.924-25.751,27.978-55.877,35.579-88.262h35.909C329.552,373.021,315.599,404.685,296.942,430.847z M341.443,323.026h-36.052
			c2.953-15.73,4.875-31.896,5.701-48.274h36.242C346.475,291.242,344.493,307.401,341.443,323.026z M390.676,259.528
			L390.676,259.528c-0.046-0.001-0.09-0.002-0.136-0.001h-35.21c-0.019,0-0.04-0.001-0.059-0.001c-0.007,0-0.013,0.001-0.02,0.001
			H167.394v-7.054h223.173c0.018,0,0.036,0,0.053,0h22.519c1.912,0,3.528,1.615,3.528,3.527s-1.616,3.528-3.528,3.528H390.676z
			 M409.752,291.517l-7.382-16.766h10.769c10.34,0,18.752-8.412,18.752-18.752c0-10.339-8.412-18.751-18.752-18.751h-10.77
			l7.383-16.767l75.273,35.517L409.752,291.517z"/>
	</g>
</g>
<g>
</g>
<g>
</g>
<g>
</g>
<g>
</g>
<g>
</g>
<g>
</g>
<g>
</g>
<g>
</g>
<g>
</g>
<g>
</g>
<g>
</g>
<g>
</g>
<g>
</g>
<g>
</g>
<g>
</g>
</svg>
