<?xml version="1.0" encoding="iso-8859-1"?>
<!-- Generator: Adobe Illustrator 19.0.0, SVG Export Plug-In . SVG Version: 6.00 Build 0)  -->
<svg version="1.1" id="Layer_1" xmlns="http://www.w3.org/2000/svg" xmlns:xlink="http://www.w3.org/1999/xlink" x="0px" y="0px"
	 viewBox="0 0 512 512" style="enable-background:new 0 0 512 512;" xml:space="preserve">
<g>
	<g>
		<path d="M236.916,378.45c-4.192,0-7.591,3.399-7.591,7.591v11.809c0,4.193,3.399,7.591,7.591,7.591
			c4.193,0,7.591-3.399,7.591-7.591v-11.809C244.507,381.849,241.108,378.45,236.916,378.45z"/>
	</g>
</g>
<g>
	<g>
		<path d="M284.826,378.45c-4.192,0-7.591,3.399-7.591,7.591v11.809c0,4.193,3.399,7.591,7.591,7.591
			c4.193,0,7.591-3.399,7.591-7.591v-11.809C292.417,381.849,289.018,378.45,284.826,378.45z"/>
	</g>
</g>
<g>
	<g>
		<path d="M279.259,414.893c-4.192,0-7.591,3.399-7.591,7.591c0,5.953-4.843,10.797-10.797,10.797
			c-5.954,0-10.797-4.843-10.797-10.797c0-4.192-3.399-7.591-7.591-7.591c-4.192,0-7.591,3.399-7.591,7.591
			c0,14.324,11.654,25.98,25.98,25.98c14.325,0,25.98-11.654,25.98-25.98C286.85,418.292,283.451,414.893,279.259,414.893z"/>
	</g>
</g>
<g>
	<g>
		<path d="M86.179,167.916c-4.193,0-7.591,3.399-7.591,7.591v13.495c0,4.192,3.399,7.591,7.591,7.591
			c4.192,0,7.591-3.399,7.591-7.591v-13.495C93.77,171.315,90.372,167.916,86.179,167.916z"/>
	</g>
</g>
<g>
	<g>
		<path d="M147.416,167.916c-4.193,0-7.591,3.399-7.591,7.591v13.495c0,4.192,3.399,7.591,7.591,7.591
			c4.192,0,7.591-3.399,7.591-7.591v-13.495C155.008,171.315,151.609,167.916,147.416,167.916z"/>
	</g>
</g>
<g>
	<g>
		<path d="M150.284,230.675H86.179c-4.193,0-7.591,3.399-7.591,7.591c0,21.86,17.784,39.644,39.644,39.644
			s39.644-17.784,39.644-39.644C157.875,234.074,154.476,230.675,150.284,230.675z M118.231,262.728
			c-10.839,0-20.054-7.086-23.256-16.87h46.511C138.285,255.641,129.069,262.728,118.231,262.728z"/>
	</g>
</g>
<g>
	<g>
		<path d="M418.394,224.771c-4.192,0-7.591,3.399-7.591,7.591c0,10.139-8.248,18.388-18.388,18.388
			c-10.14,0-18.388-8.248-18.388-18.388c0-4.192-3.399-7.591-7.591-7.591c-4.192,0-7.591,3.399-7.591,7.591
			c0,18.511,15.059,33.571,33.571,33.571c18.512,0,33.571-15.059,33.571-33.571C425.985,228.17,422.586,224.771,418.394,224.771z"/>
	</g>
</g>
<g>
	<g>
		<path d="M360.113,177.549c-11.176,0-20.267,9.091-20.267,20.267c0,4.192,3.399,7.591,7.591,7.591c4.193,0,7.591-3.399,7.591-7.591
			c0-2.804,2.28-5.084,5.084-5.084s5.084,2.28,5.084,5.084c0,4.192,3.399,7.591,7.591,7.591c4.192,0,7.591-3.399,7.591-7.591
			C380.38,186.64,371.289,177.549,360.113,177.549z"/>
	</g>
</g>
<g>
	<g>
		<path d="M424.716,177.549c-11.176,0-20.267,9.091-20.267,20.267c0,4.193,3.399,7.591,7.591,7.591c4.193,0,7.591-3.399,7.591-7.591
			c0-2.804,2.28-5.084,5.084-5.084c2.804,0,5.084,2.28,5.084,5.084c0,4.193,3.399,7.591,7.591,7.591
			c4.192,0,7.591-3.399,7.591-7.591C444.984,186.64,435.891,177.549,424.716,177.549z"/>
	</g>
</g>
<g>
	<g>
		<path d="M123.957,206.272h-7.362l7.618-21.48c1.401-3.952-0.666-8.291-4.618-9.693c-3.953-1.4-8.291,0.666-9.693,4.618
			l-11.21,31.609c-0.824,2.324-0.468,4.903,0.955,6.917c1.423,2.013,3.735,3.212,6.201,3.212h18.109
			c4.193,0,7.591-3.399,7.591-7.591C131.548,209.671,128.149,206.272,123.957,206.272z"/>
	</g>
</g>
<g>
	<g>
		<path d="M8.013,453.068c-4.192,0-7.591,3.399-7.591,7.591v43.75c0,4.192,3.399,7.591,7.591,7.591c4.193,0,7.591-3.399,7.591-7.591
			v-43.75C15.604,456.466,12.206,453.068,8.013,453.068z"/>
	</g>
</g>
<g>
	<g>
		<path d="M511.575,326.095c0-25.259-17.601-46.47-41.179-52.051c8.391-13.641,13.301-29.639,13.493-46.751
			c15.059-3.453,26.33-16.952,26.33-33.044c0-16.087-11.264-29.583-26.317-33.041v-3.01c0-40.917-27-75.644-64.118-87.305
			c8.282-7.45,13.5-18.24,13.5-30.229C433.286,18.242,415.044,0,392.621,0c-22.423,0-40.664,18.242-40.664,40.664
			c0,11.937,5.171,22.687,13.389,30.134c-37.275,11.567-64.422,46.373-64.422,87.401v3.01
			c-15.053,3.458-26.317,16.954-26.317,33.041c0,16.092,11.271,29.591,26.33,33.044c0.187,16.623,4.827,32.195,12.785,45.577
			c-18.727,1.855-35.039,13.382-43.038,30.336c-3.217-0.412-6.488-0.649-9.814-0.649c-13.244,0-25.718,3.369-36.607,9.294
			c-7.346-11.214-18.477-19.385-31.213-23.106c10.42-13.09,16.67-29.64,16.67-47.632v-13.406
			c16.097-2.631,28.422-16.629,28.422-33.458c0-16.829-12.325-30.827-28.422-33.458v-34.194c0-33.023-26.865-59.888-59.888-59.888
			c-4.192,0-7.591,3.399-7.591,7.591c0,4.192,3.399,7.591,7.591,7.591c24.651,0,44.705,20.054,44.705,44.705v9.993
			c-0.578-0.064-1.171-0.07-1.773,0.005c-45.701,5.71-71.713-2.152-85.486-9.752c-14.016-7.734-18.248-16.473-18.629-17.311
			c-1.115-2.952-3.904-4.808-7.06-4.808c-0.017,0-0.034,0-0.052,0c-3.191,0.021-5.991,2.134-7.064,5.14
			c-0.109,0.306-10.178,27.804-32.549,32.93v-16.197c0-24.651,20.054-44.705,44.705-44.705c4.192,0,7.591-3.399,7.591-7.591
			c0-4.193-3.399-7.591-7.591-7.591c-33.023,0-59.888,26.865-59.888,59.888v34.611c-15.053,3.458-26.317,16.954-26.317,33.041
			s11.264,29.583,26.317,33.041v13.823c0,17.719,6.062,34.04,16.199,47.034c-24.385,6.04-42.52,28.099-42.52,54.324v40.572
			c0,4.192,3.399,7.591,7.591,7.591c4.192,0,7.591-3.399,7.591-7.591v-40.572c0-22.49,18.297-40.786,40.786-40.786
			c0.041,0,0.08-0.005,0.12-0.006c12.965,10.054,29.219,16.06,46.858,16.06h29.724c17.585,0,33.792-5.969,46.738-15.966
			c13.022,0.776,24.877,7.762,31.883,18.618c-16.904,14.106-27.682,35.317-27.682,59.003c0,4.192,3.399,7.591,7.591,7.591
			c4.192,0,7.591-3.399,7.591-7.591c0-20.488,10.053-38.661,25.476-49.88v19.075c0,4.192,3.399,7.591,7.591,7.591
			c4.192,0,7.591-3.399,7.591-7.591v-27.164c3.601-1.309,7.36-2.286,11.236-2.906v30.07c0,4.192,3.399,7.591,7.591,7.591
			c4.193,0,7.591-3.399,7.591-7.591v-30.598c3.753,0.329,7.409,0.995,10.942,1.969v28.629c0,4.193,3.399,7.591,7.591,7.591
			c4.193,0,7.591-3.399,7.591-7.591v-22.142c18.016,10.775,30.109,30.472,30.109,52.947v37.334
			c0,33.996-27.659,61.655-61.656,61.655s-61.656-27.659-61.656-61.655c0-4.193-3.399-7.591-7.591-7.591s-7.591,3.399-7.591,7.591
			c0,14.697,4.154,28.438,11.341,40.125c-20.183,5.706-35.022,24.277-35.022,46.262c0,4.192,3.399,7.591,7.591,7.591
			c4.192,0,7.591-3.399,7.591-7.591c0-17.283,13.4-31.485,30.354-32.788c13.965,14.321,33.448,23.239,54.983,23.239
			c21.549,0,41.042-8.928,55.009-23.266c17.124,1.129,30.713,15.412,30.713,32.815c0,4.192,3.399,7.591,7.591,7.591
			c4.193,0,7.591-3.399,7.591-7.591c0-22.103-14.998-40.759-35.347-46.355c7.151-11.667,11.281-25.376,11.281-40.033v-37.335
			c0-33.589-21.673-62.194-51.762-72.614c6.758-11.614,19.249-19.003,33.11-19.003h5.706c16.747,18.396,40.874,29.962,67.652,29.962
			c26.754,0,50.862-11.545,67.607-29.912c20.228,1.015,36.372,17.791,36.372,38.267l0.003,178.035c0,4.193,3.399,7.591,7.591,7.591
			c4.192,0,7.591-3.399,7.591-7.591L511.575,326.095z M483.903,177.148c6.551,2.919,11.134,9.48,11.134,17.102
			s-4.584,14.183-11.134,17.102V177.148z M300.925,211.352c-6.55-2.919-11.134-9.481-11.134-17.102
			c0-7.622,4.584-14.183,11.134-17.102V211.352z M209.72,176.347c7.656,2.351,13.239,9.486,13.239,17.903
			s-5.583,15.55-13.239,17.902V176.347z M26.743,211.352c-6.55-2.919-11.134-9.481-11.134-17.102
			c0-7.622,4.584-14.183,11.134-17.102V211.352z M133.092,302.558h-29.723c-33.881,0-61.445-27.564-61.445-61.445v-82.858
			c21.039-3.135,34.133-19.401,40.964-31.089c12.891,13.631,43.679,32.972,111.648,24.508v89.439
			C194.537,274.994,166.973,302.558,133.092,302.558z M392.621,15.183c14.05,0,25.482,11.431,25.482,25.481
			c0,14.05-11.431,25.482-25.482,25.482c-14.051,0-25.481-11.431-25.481-25.482C367.141,26.612,378.571,15.183,392.621,15.183z
			 M468.72,226.251c0.001,42.076-34.229,76.307-76.305,76.307c-23.102,0-43.824-10.333-57.828-26.605
			c-0.322-0.478-0.701-0.912-1.12-1.304c-10.839-13.18-17.358-30.041-17.358-48.398v-68.052c0-14.719,4.201-28.47,11.449-40.139
			c6.119,5.438,16.498,13.352,31.932,21.026c1.086,0.541,2.238,0.796,3.374,0.796c2.791,0,5.477-1.545,6.803-4.213
			c1.867-3.754,0.337-8.31-3.417-10.178c-14.83-7.375-24.357-14.911-29.404-19.507c13.928-14.814,33.679-24.092,55.569-24.092
			c38.57,0,70.528,28.772,75.588,65.977c-20.903-0.496-40.568-2.878-58.554-7.114c-4.08-0.961-8.168,1.568-9.13,5.649
			c-0.962,4.081,1.568,8.168,5.649,9.13c19.318,4.55,40.397,7.074,62.753,7.538V226.251z"/>
	</g>
</g>
<g>
</g>
<g>
</g>
<g>
</g>
<g>
</g>
<g>
</g>
<g>
</g>
<g>
</g>
<g>
</g>
<g>
</g>
<g>
</g>
<g>
</g>
<g>
</g>
<g>
</g>
<g>
</g>
<g>
</g>
</svg>
